<svg xmlns="http://www.w3.org/2000/svg" viewBox="0 0 128 128" width="128px" height="128px"><path fill="#efd7ff" d="M122.6,61.1c-7.1-32.4-39.1-52.8-71.5-45.7C18.8,22.5-1.7,54.5,5.4,86.9c3.5,15.8,12.9,28.8,25.5,37.1h66.3C117.2,110.7,128.1,86,122.6,61.1z"/><path fill="#fff" d="M108,64.3c-4.4-20-21.5-34-41-35.2c0,0,0-0.1,0-0.1c0-1.7-1.3-3-3-3c-26.5,0-48,21.5-48,48c0,1.7,1.3,3,3,3c0,0,0.1,0,0.1,0c0.1,2.2,0.5,4.4,1,6.7c5.3,24.3,29.3,39.6,53.6,34.3C97.9,112.6,113.3,88.6,108,64.3z"/><path fill="#80489b" d="M64,122c-1.7,0-3-1.3-3-3s1.3-3,3-3c23.2,0,42-18.8,42-42c0-1.7,1.3-3,3-3s3,1.3,3,3C112,100.5,90.5,122,64,122z"/><path fill="#c08ce5" d="M64,116c-1.7,0-3-1.3-3-3s1.3-3,3-3c14.5,0,27.5-8.6,33.2-22c0.6-1.5,2.4-2.2,3.9-1.6c1.5,0.6,2.2,2.4,1.6,3.9C96.1,105.9,80.9,116,64,116z"/><path fill="#674374" d="M64,122c-1.7,0-3-1.3-3-3s1.3-3,3-3c13.3,0,26-6.4,33.9-17.2c1-1.3,2.9-1.6,4.2-0.6c1.3,1,1.6,2.9,0.6,4.2C93.7,114.7,79.2,122,64,122z"/><path fill="#c08ce5" d="M64,122c-26.5,0-48-21.5-48-48c0-1.7,1.3-3,3-3s3,1.3,3,3c0,23.2,18.8,42,42,42c1.7,0,3,1.3,3,3S65.7,122,64,122z"/><path fill="#80489b" d="M64,122c-15.2,0-29.6-7.3-38.7-19.6c-1-1.3-0.7-3.2,0.6-4.2c1.3-1,3.2-0.7,4.2,0.6C38.1,109.6,50.7,116,64,116c1.7,0,3,1.3,3,3S65.7,122,64,122z"/><path fill="#444b54" d="M109,121h-8.1l-4.2-9.2c-0.5-1.1-1.6-1.8-2.7-1.8H34c-1.2,0-2.2,0.7-2.7,1.8l-5,11c-0.4,0.9-0.3,2,0.2,2.9C27,126.5,28,127,29,127h80c1.7,0,3-1.3,3-3S110.7,121,109,121z"/><path fill="#c08ce5" d="M32.3 54.3c-.6 0-1.2-.2-1.7-.6-1.3-1-1.7-2.8-.7-4.2 5.4-7.5 13.2-13.1 21.9-15.7 1.6-.5 3.3.4 3.7 2 .5 1.6-.4 3.3-2 3.7C46 41.8 39.4 46.6 34.8 53 34.2 53.8 33.2 54.3 32.3 54.3zM47.6 55.5c-.9 0-1.8-.4-2.4-1.2-1-1.3-.8-3.2.6-4.2 3.3-2.5 7-4.3 11-5.3 1.6-.4 3.2.6 3.6 2.2.4 1.6-.6 3.2-2.2 3.6-3.2.8-6.1 2.2-8.8 4.2C48.9 55.3 48.3 55.5 47.6 55.5zM64 110c-16.5 0-31.5-11.5-35.2-28.3-.4-1.6.7-3.2 2.3-3.6 1.6-.4 3.2.7 3.6 2.3 3.5 16.2 19.6 26.4 35.7 22.9 1.6-.4 3.2.7 3.6 2.3.4 1.6-.7 3.2-2.3 3.6C69.1 109.7 66.5 110 64 110zM89.2 39.7c-.6 0-1.2-.2-1.7-.5C80.5 34.5 72.4 32 64 32c-1.7 0-3-1.3-3-3s1.3-3 3-3c9.6 0 18.9 2.8 26.8 8.2 1.4.9 1.7 2.8.8 4.2C91.1 39.2 90.1 39.7 89.2 39.7z"/><path fill="#444b54" d="M124 121A3 3 0 1 0 124 127A3 3 0 1 0 124 121Z"/><path fill="#c08ce5" d="M26 62A3 3 0 1 0 26 68A3 3 0 1 0 26 62Z"/><path fill="#d67df4" d="M9 62A3 3 0 1 0 9 68A3 3 0 1 0 9 62Z"/><path fill="#c08ce5" d="M29 12A3 3 0 1 0 29 18A3 3 0 1 0 29 12Z"/><path fill="#80489b" d="M99 2A3 3 0 1 0 99 8A3 3 0 1 0 99 2Z"/><path fill="#c08ce5" d="M119 32A3 3 0 1 0 119 38A3 3 0 1 0 119 32Z"/></svg>